%TF.GenerationSoftware,KiCad,Pcbnew,9.0.2*%
%TF.CreationDate,2025-07-06T21:36:45-04:00*%
%TF.ProjectId,hackpad,6861636b-7061-4642-9e6b-696361645f70,rev?*%
%TF.SameCoordinates,Original*%
%TF.FileFunction,Soldermask,Top*%
%TF.FilePolarity,Negative*%
%FSLAX46Y46*%
G04 Gerber Fmt 4.6, Leading zero omitted, Abs format (unit mm)*
G04 Created by KiCad (PCBNEW 9.0.2) date 2025-07-06 21:36:45*
%MOMM*%
%LPD*%
G01*
G04 APERTURE LIST*
G04 Aperture macros list*
%AMRoundRect*
0 Rectangle with rounded corners*
0 $1 Rounding radius*
0 $2 $3 $4 $5 $6 $7 $8 $9 X,Y pos of 4 corners*
0 Add a 4 corners polygon primitive as box body*
4,1,4,$2,$3,$4,$5,$6,$7,$8,$9,$2,$3,0*
0 Add four circle primitives for the rounded corners*
1,1,$1+$1,$2,$3*
1,1,$1+$1,$4,$5*
1,1,$1+$1,$6,$7*
1,1,$1+$1,$8,$9*
0 Add four rect primitives between the rounded corners*
20,1,$1+$1,$2,$3,$4,$5,0*
20,1,$1+$1,$4,$5,$6,$7,0*
20,1,$1+$1,$6,$7,$8,$9,0*
20,1,$1+$1,$8,$9,$2,$3,0*%
G04 Aperture macros list end*
%ADD10RoundRect,0.152400X-0.609600X1.063600X-0.609600X-1.063600X0.609600X-1.063600X0.609600X1.063600X0*%
%ADD11C,1.524000*%
%ADD12RoundRect,0.152400X0.609600X-1.063600X0.609600X1.063600X-0.609600X1.063600X-0.609600X-1.063600X0*%
%ADD13C,1.700000*%
%ADD14C,4.000000*%
%ADD15C,2.200000*%
%ADD16R,1.600000X0.850000*%
G04 APERTURE END LIST*
D10*
%TO.C,U1*%
X107632500Y-96561250D03*
D11*
X107632500Y-95726250D03*
D10*
X105092500Y-96561250D03*
D11*
X105092500Y-95726250D03*
D10*
X102552500Y-96561250D03*
D11*
X102552500Y-95726250D03*
D10*
X100012500Y-96561250D03*
D11*
X100012500Y-95726250D03*
D10*
X97472500Y-96561250D03*
D11*
X97472500Y-95726250D03*
D10*
X94932500Y-96561250D03*
D11*
X94932500Y-95726250D03*
D10*
X92392500Y-96561250D03*
D11*
X92392500Y-95726250D03*
X92392500Y-80486250D03*
D12*
X92392500Y-79651250D03*
D11*
X94932500Y-80486250D03*
D12*
X94932500Y-79651250D03*
D11*
X97472500Y-80486250D03*
D12*
X97472500Y-79651250D03*
D11*
X100012500Y-80486250D03*
D12*
X100012500Y-79651250D03*
D11*
X102552500Y-80486250D03*
D12*
X102552500Y-79651250D03*
D11*
X105092500Y-80486250D03*
D12*
X105092500Y-79651250D03*
D11*
X107632500Y-80486250D03*
D12*
X107632500Y-79651250D03*
%TD*%
D13*
%TO.C,SW5*%
X73581709Y-119047010D03*
D14*
X78661709Y-119047010D03*
D13*
X83741709Y-119047010D03*
D15*
X81201709Y-113967010D03*
X74851709Y-116507010D03*
%TD*%
D13*
%TO.C,SW2*%
X54451250Y-119062500D03*
D14*
X59531250Y-119062500D03*
D13*
X64611250Y-119062500D03*
D15*
X62071250Y-113982500D03*
X55721250Y-116522500D03*
%TD*%
D13*
%TO.C,SW1*%
X54451250Y-100012500D03*
D14*
X59531250Y-100012500D03*
D13*
X64611250Y-100012500D03*
D15*
X62071250Y-94932500D03*
X55721250Y-97472500D03*
%TD*%
D16*
%TO.C,D2*%
X79500000Y-104250000D03*
X79500000Y-106000000D03*
X83000000Y-106000000D03*
X83000000Y-104250000D03*
%TD*%
%TO.C,D1*%
X79545588Y-56183014D03*
X79545588Y-57933014D03*
X83045588Y-57933014D03*
X83045588Y-56183014D03*
%TD*%
D13*
%TO.C,SW3*%
X54451250Y-61912500D03*
D14*
X59531250Y-61912500D03*
D13*
X64611250Y-61912500D03*
D15*
X62071250Y-56832500D03*
X55721250Y-59372500D03*
%TD*%
D13*
%TO.C,SW4*%
X54451250Y-80962500D03*
D14*
X59531250Y-80962500D03*
D13*
X64611250Y-80962500D03*
D15*
X62071250Y-75882500D03*
X55721250Y-78422500D03*
%TD*%
M02*
