%TF.GenerationSoftware,KiCad,Pcbnew,9.0.2-9.0.2-0~ubuntu25.04.1*%
%TF.CreationDate,2025-06-28T22:06:06-04:00*%
%TF.ProjectId,hackpad,6861636b-7061-4642-9e6b-696361645f70,rev?*%
%TF.SameCoordinates,Original*%
%TF.FileFunction,Copper,L2,Bot*%
%TF.FilePolarity,Positive*%
%FSLAX46Y46*%
G04 Gerber Fmt 4.6, Leading zero omitted, Abs format (unit mm)*
G04 Created by KiCad (PCBNEW 9.0.2-9.0.2-0~ubuntu25.04.1) date 2025-06-28 22:06:06*
%MOMM*%
%LPD*%
G01*
G04 APERTURE LIST*
%TA.AperFunction,ComponentPad*%
%ADD10C,1.524000*%
%TD*%
%TA.AperFunction,ComponentPad*%
%ADD11C,2.200000*%
%TD*%
%TA.AperFunction,Conductor*%
%ADD12C,0.200000*%
%TD*%
G04 APERTURE END LIST*
D10*
%TO.P,U1,1,GPIO26/ADC0/A0*%
%TO.N,unconnected-(U1-GPIO26{slash}ADC0{slash}A0-Pad1)*%
X107632500Y-80486250D03*
%TO.P,U1,2,GPIO27/ADC1/A1*%
%TO.N,unconnected-(U1-GPIO27{slash}ADC1{slash}A1-Pad2)*%
X105092500Y-80486250D03*
%TO.P,U1,3,GPIO28/ADC2/A2*%
%TO.N,unconnected-(U1-GPIO28{slash}ADC2{slash}A2-Pad3)*%
X102552500Y-80486250D03*
%TO.P,U1,4,GPIO29/ADC3/A3*%
%TO.N,unconnected-(U1-GPIO29{slash}ADC3{slash}A3-Pad4)*%
X100012500Y-80486250D03*
%TO.P,U1,5,GPIO6/SDA*%
%TO.N,Net-(D1-DIN)*%
X97472500Y-80486250D03*
%TO.P,U1,6,GPIO7/SCL*%
%TO.N,unconnected-(U1-GPIO7{slash}SCL-Pad6)*%
X94932500Y-80486250D03*
%TO.P,U1,7,GPIO0/TX*%
%TO.N,unconnected-(U1-GPIO0{slash}TX-Pad7)*%
X92392500Y-80486250D03*
%TO.P,U1,8,GPIO1/RX*%
%TO.N,Net-(U1-GPIO1{slash}RX)*%
X92392500Y-95726250D03*
%TO.P,U1,9,GPIO2/SCK*%
%TO.N,Net-(U1-GPIO2{slash}SCK)*%
X94932500Y-95726250D03*
%TO.P,U1,10,GPIO4/MISO*%
%TO.N,Net-(U1-GPIO4{slash}MISO)*%
X97472500Y-95726250D03*
%TO.P,U1,11,GPIO3/MOSI*%
%TO.N,Net-(U1-GPIO3{slash}MOSI)*%
X100012500Y-95726250D03*
%TO.P,U1,12,3V3*%
%TO.N,unconnected-(U1-3V3-Pad12)*%
X102552500Y-95726250D03*
%TO.P,U1,13,GND*%
%TO.N,GND*%
X105092500Y-95726250D03*
%TO.P,U1,14,VBUS*%
%TO.N,+5V*%
X107632500Y-95726250D03*
%TD*%
D11*
%TO.P,SW2,1,1*%
%TO.N,GND*%
X62071250Y-113982500D03*
%TO.P,SW2,2,2*%
%TO.N,Net-(U1-GPIO2{slash}SCK)*%
X55721250Y-116522500D03*
%TD*%
%TO.P,SW1,1,1*%
%TO.N,GND*%
X62071250Y-94932500D03*
%TO.P,SW1,2,2*%
%TO.N,Net-(U1-GPIO1{slash}RX)*%
X55721250Y-97472500D03*
%TD*%
%TO.P,SW3,1,1*%
%TO.N,GND*%
X62071250Y-56832500D03*
%TO.P,SW3,2,2*%
%TO.N,Net-(U1-GPIO4{slash}MISO)*%
X55721250Y-59372500D03*
%TD*%
%TO.P,SW4,1,1*%
%TO.N,GND*%
X62071250Y-75882500D03*
%TO.P,SW4,2,2*%
%TO.N,Net-(U1-GPIO3{slash}MOSI)*%
X55721250Y-78422500D03*
%TD*%
D12*
%TO.N,GND*%
X66198750Y-56832500D02*
X105092500Y-95726250D01*
X62071250Y-113982500D02*
X86836250Y-113982500D01*
X56301564Y-79823500D02*
X55140936Y-79823500D01*
X62071250Y-75882500D02*
X60242564Y-75882500D01*
X60242564Y-75882500D02*
X56301564Y-79823500D01*
X52849250Y-77531814D02*
X52849250Y-59696086D01*
X86836250Y-113982500D02*
X105092500Y-95726250D01*
X55712836Y-56832500D02*
X62071250Y-56832500D01*
X52849250Y-59696086D02*
X55712836Y-56832500D01*
X62071250Y-56832500D02*
X66198750Y-56832500D01*
X55140936Y-79823500D02*
X52849250Y-77531814D01*
%TO.N,Net-(U1-GPIO1{slash}RX)*%
X56821249Y-96372501D02*
X91746249Y-96372501D01*
X91746249Y-96372501D02*
X92392500Y-95726250D01*
X55721250Y-97472500D02*
X56821249Y-96372501D01*
%TO.N,Net-(U1-GPIO2{slash}SCK)*%
X55721250Y-116522500D02*
X75454500Y-96789250D01*
X75454500Y-96789250D02*
X93869500Y-96789250D01*
X93869500Y-96789250D02*
X94932500Y-95726250D01*
%TO.N,Net-(U1-GPIO4{slash}MISO)*%
X55721250Y-59372500D02*
X55721250Y-61427316D01*
X96409500Y-94663250D02*
X97472500Y-95726250D01*
X55721250Y-61427316D02*
X88957184Y-94663250D01*
X88957184Y-94663250D02*
X96409500Y-94663250D01*
%TO.N,Net-(U1-GPIO3{slash}MOSI)*%
X55721250Y-78422500D02*
X53250250Y-75951500D01*
X55140936Y-57971500D02*
X58915066Y-57971500D01*
X98548500Y-94262250D02*
X100012500Y-95726250D01*
X58915066Y-57971500D02*
X95205816Y-94262250D01*
X95205816Y-94262250D02*
X98548500Y-94262250D01*
X53250250Y-59862186D02*
X55140936Y-57971500D01*
X53250250Y-75951500D02*
X53250250Y-59862186D01*
%TD*%
M02*
