%TF.GenerationSoftware,KiCad,Pcbnew,9.0.2*%
%TF.CreationDate,2025-07-06T21:36:45-04:00*%
%TF.ProjectId,hackpad,6861636b-7061-4642-9e6b-696361645f70,rev?*%
%TF.SameCoordinates,Original*%
%TF.FileFunction,Copper,L2,Bot*%
%TF.FilePolarity,Positive*%
%FSLAX46Y46*%
G04 Gerber Fmt 4.6, Leading zero omitted, Abs format (unit mm)*
G04 Created by KiCad (PCBNEW 9.0.2) date 2025-07-06 21:36:45*
%MOMM*%
%LPD*%
G01*
G04 APERTURE LIST*
%TA.AperFunction,ComponentPad*%
%ADD10C,1.524000*%
%TD*%
%TA.AperFunction,ComponentPad*%
%ADD11C,2.200000*%
%TD*%
%TA.AperFunction,Conductor*%
%ADD12C,0.200000*%
%TD*%
G04 APERTURE END LIST*
D10*
%TO.P,U1,14,VBUS*%
%TO.N,+5V*%
X107632500Y-95726250D03*
%TO.P,U1,13,GND*%
%TO.N,GND*%
X105092500Y-95726250D03*
%TO.P,U1,12,3V3*%
%TO.N,unconnected-(U1-3V3-Pad12)*%
X102552500Y-95726250D03*
%TO.P,U1,11,GPIO3/MOSI*%
%TO.N,Net-(U1-GPIO3{slash}MOSI)*%
X100012500Y-95726250D03*
%TO.P,U1,10,GPIO4/MISO*%
%TO.N,Net-(U1-GPIO4{slash}MISO)*%
X97472500Y-95726250D03*
%TO.P,U1,9,GPIO2/SCK*%
%TO.N,Net-(U1-GPIO2{slash}SCK)*%
X94932500Y-95726250D03*
%TO.P,U1,8,GPIO1/RX*%
%TO.N,Net-(U1-GPIO1{slash}RX)*%
X92392500Y-95726250D03*
%TO.P,U1,7,GPIO0/TX*%
%TO.N,unconnected-(U1-GPIO0{slash}TX-Pad7)*%
X92392500Y-80486250D03*
%TO.P,U1,6,GPIO7/SCL*%
%TO.N,unconnected-(U1-GPIO7{slash}SCL-Pad6)*%
X94932500Y-80486250D03*
%TO.P,U1,5,GPIO6/SDA*%
%TO.N,Net-(D1-DIN)*%
X97472500Y-80486250D03*
%TO.P,U1,4,GPIO29/ADC3/A3*%
%TO.N,unconnected-(U1-GPIO29{slash}ADC3{slash}A3-Pad4)*%
X100012500Y-80486250D03*
%TO.P,U1,3,GPIO28/ADC2/A2*%
%TO.N,Net-(U1-GPIO28{slash}ADC2{slash}A2)*%
X102552500Y-80486250D03*
%TO.P,U1,2,GPIO27/ADC1/A1*%
%TO.N,unconnected-(U1-GPIO27{slash}ADC1{slash}A1-Pad2)*%
X105092500Y-80486250D03*
%TO.P,U1,1,GPIO26/ADC0/A0*%
%TO.N,unconnected-(U1-GPIO26{slash}ADC0{slash}A0-Pad1)*%
X107632500Y-80486250D03*
%TD*%
D11*
%TO.P,SW5,1,1*%
%TO.N,GND*%
X81201709Y-113967010D03*
%TO.P,SW5,2,2*%
%TO.N,Net-(U1-GPIO28{slash}ADC2{slash}A2)*%
X74851709Y-116507010D03*
%TD*%
%TO.P,SW2,1,1*%
%TO.N,GND*%
X62071250Y-113982500D03*
%TO.P,SW2,2,2*%
%TO.N,Net-(U1-GPIO2{slash}SCK)*%
X55721250Y-116522500D03*
%TD*%
%TO.P,SW1,1,1*%
%TO.N,GND*%
X62071250Y-94932500D03*
%TO.P,SW1,2,2*%
%TO.N,Net-(U1-GPIO1{slash}RX)*%
X55721250Y-97472500D03*
%TD*%
%TO.P,SW3,1,1*%
%TO.N,GND*%
X62071250Y-56832500D03*
%TO.P,SW3,2,2*%
%TO.N,Net-(U1-GPIO4{slash}MISO)*%
X55721250Y-59372500D03*
%TD*%
%TO.P,SW4,1,1*%
%TO.N,GND*%
X62071250Y-75882500D03*
%TO.P,SW4,2,2*%
%TO.N,Net-(U1-GPIO3{slash}MOSI)*%
X55721250Y-78422500D03*
%TD*%
D12*
%TO.N,Net-(U1-GPIO3{slash}MOSI)*%
X100012500Y-97960632D02*
X100012500Y-95726250D01*
X82204122Y-115769010D02*
X100012500Y-97960632D01*
X77820686Y-115769010D02*
X82204122Y-115769010D01*
X77000000Y-114948324D02*
X77820686Y-115769010D01*
X66551676Y-114948324D02*
X77000000Y-114948324D01*
X64977500Y-116522500D02*
X66551676Y-114948324D01*
X57702564Y-116522500D02*
X64977500Y-116522500D01*
X56301564Y-117923500D02*
X57702564Y-116522500D01*
X55140936Y-117923500D02*
X56301564Y-117923500D01*
X54320250Y-117102814D02*
X55140936Y-117923500D01*
X54320250Y-102015442D02*
X54320250Y-117102814D01*
X56301564Y-100034128D02*
X54320250Y-102015442D01*
X54320250Y-98052814D02*
X56301564Y-100034128D01*
X54320250Y-96892186D02*
X54320250Y-98052814D01*
X55721250Y-95491186D02*
X54320250Y-96892186D01*
X55721250Y-78422500D02*
X55721250Y-95491186D01*
%TO.N,Net-(U1-GPIO1{slash}RX)*%
X92392500Y-105013532D02*
X92392500Y-95726250D01*
X82038022Y-115368010D02*
X92392500Y-105013532D01*
X77986786Y-115368010D02*
X82038022Y-115368010D01*
X77166100Y-114547324D02*
X77986786Y-115368010D01*
X66385576Y-114547324D02*
X77166100Y-114547324D01*
X64811400Y-116121500D02*
X66385576Y-114547324D01*
X57122250Y-116121500D02*
X64811400Y-116121500D01*
X57122250Y-98873500D02*
X57122250Y-116121500D01*
X55721250Y-97472500D02*
X57122250Y-98873500D01*
%TO.N,Net-(U1-GPIO28{slash}ADC2{slash}A2)*%
X86382150Y-116507010D02*
X74851709Y-116507010D01*
X106556500Y-96332660D02*
X86382150Y-116507010D01*
X106556500Y-84490250D02*
X106556500Y-96332660D01*
X102552500Y-80486250D02*
X106556500Y-84490250D01*
%TO.N,Net-(U1-GPIO4{slash}MISO)*%
X98965249Y-94233501D02*
X97472500Y-95726250D01*
X104029500Y-95230350D02*
X103032651Y-94233501D01*
X104029500Y-96166560D02*
X104029500Y-95230350D01*
X104652190Y-96789250D02*
X104029500Y-96166560D01*
X105532810Y-96789250D02*
X104652190Y-96789250D01*
X106155500Y-96166560D02*
X105532810Y-96789250D01*
X106155500Y-95285940D02*
X106155500Y-96166560D01*
X103032651Y-94233501D02*
X98965249Y-94233501D01*
X105532810Y-94663250D02*
X106155500Y-95285940D01*
X104652190Y-94663250D02*
X105532810Y-94663250D01*
X65420440Y-55431500D02*
X104652190Y-94663250D01*
X59662250Y-55431500D02*
X65420440Y-55431500D01*
X55721250Y-59372500D02*
X59662250Y-55431500D01*
%TO.N,GND*%
X62071250Y-75882500D02*
X62071250Y-56832500D01*
X103198751Y-93832501D02*
X105092500Y-95726250D01*
X63171249Y-93832501D02*
X103198751Y-93832501D01*
X62071250Y-94932500D02*
X63171249Y-93832501D01*
X62071250Y-113982500D02*
X62071250Y-94932500D01*
X62086740Y-113967010D02*
X62071250Y-113982500D01*
X81201709Y-113967010D02*
X62086740Y-113967010D01*
%TO.N,Net-(U1-GPIO1{slash}RX)*%
X91746249Y-96372501D02*
X92392500Y-95726250D01*
%TD*%
M02*
