%TF.GenerationSoftware,KiCad,Pcbnew,9.0.2-9.0.2-0~ubuntu25.04.1*%
%TF.CreationDate,2025-06-28T16:32:54-04:00*%
%TF.ProjectId,hackpad,6861636b-7061-4642-9e6b-696361645f70,rev?*%
%TF.SameCoordinates,Original*%
%TF.FileFunction,Copper,L1,Top*%
%TF.FilePolarity,Positive*%
%FSLAX46Y46*%
G04 Gerber Fmt 4.6, Leading zero omitted, Abs format (unit mm)*
G04 Created by KiCad (PCBNEW 9.0.2-9.0.2-0~ubuntu25.04.1) date 2025-06-28 16:32:54*
%MOMM*%
%LPD*%
G01*
G04 APERTURE LIST*
G04 Aperture macros list*
%AMRoundRect*
0 Rectangle with rounded corners*
0 $1 Rounding radius*
0 $2 $3 $4 $5 $6 $7 $8 $9 X,Y pos of 4 corners*
0 Add a 4 corners polygon primitive as box body*
4,1,4,$2,$3,$4,$5,$6,$7,$8,$9,$2,$3,0*
0 Add four circle primitives for the rounded corners*
1,1,$1+$1,$2,$3*
1,1,$1+$1,$4,$5*
1,1,$1+$1,$6,$7*
1,1,$1+$1,$8,$9*
0 Add four rect primitives between the rounded corners*
20,1,$1+$1,$2,$3,$4,$5,0*
20,1,$1+$1,$4,$5,$6,$7,0*
20,1,$1+$1,$6,$7,$8,$9,0*
20,1,$1+$1,$8,$9,$2,$3,0*%
G04 Aperture macros list end*
%TA.AperFunction,SMDPad,CuDef*%
%ADD10R,1.600000X0.850000*%
%TD*%
%TA.AperFunction,ComponentPad*%
%ADD11C,2.200000*%
%TD*%
%TA.AperFunction,SMDPad,CuDef*%
%ADD12RoundRect,0.152400X0.609600X-1.063600X0.609600X1.063600X-0.609600X1.063600X-0.609600X-1.063600X0*%
%TD*%
%TA.AperFunction,ComponentPad*%
%ADD13C,1.524000*%
%TD*%
%TA.AperFunction,SMDPad,CuDef*%
%ADD14RoundRect,0.152400X-0.609600X1.063600X-0.609600X-1.063600X0.609600X-1.063600X0.609600X1.063600X0*%
%TD*%
%TA.AperFunction,Conductor*%
%ADD15C,0.200000*%
%TD*%
G04 APERTURE END LIST*
D10*
%TO.P,D1,1,DOUT*%
%TO.N,Net-(D1-DOUT)*%
X79545588Y-56183014D03*
%TO.P,D1,2,VSS*%
%TO.N,GND*%
X79545588Y-57933014D03*
%TO.P,D1,3,DIN*%
%TO.N,Net-(D1-DIN)*%
X83045588Y-57933014D03*
%TO.P,D1,4,VDD*%
%TO.N,+5V*%
X83045588Y-56183014D03*
%TD*%
D11*
%TO.P,SW3,1,1*%
%TO.N,GND*%
X62071250Y-56832500D03*
%TO.P,SW3,2,2*%
%TO.N,Net-(U1-GPIO4{slash}MISO)*%
X55721250Y-59372500D03*
%TD*%
D10*
%TO.P,D2,4,VDD*%
%TO.N,+5V*%
X83343750Y-124456250D03*
%TO.P,D2,3,DIN*%
%TO.N,Net-(D1-DOUT)*%
X83343750Y-126206250D03*
%TO.P,D2,2,VSS*%
%TO.N,GND*%
X79843750Y-126206250D03*
%TO.P,D2,1,DOUT*%
%TO.N,unconnected-(D2-DOUT-Pad1)*%
X79843750Y-124456250D03*
%TD*%
D11*
%TO.P,SW4,2,2*%
%TO.N,Net-(U1-GPIO3{slash}MOSI)*%
X55721250Y-78422500D03*
%TO.P,SW4,1,1*%
%TO.N,GND*%
X62071250Y-75882500D03*
%TD*%
%TO.P,SW1,2,2*%
%TO.N,Net-(U1-GPIO1{slash}RX)*%
X55721250Y-97472500D03*
%TO.P,SW1,1,1*%
%TO.N,GND*%
X62071250Y-94932500D03*
%TD*%
%TO.P,SW2,2,2*%
%TO.N,Net-(U1-GPIO2{slash}SCK)*%
X55721250Y-116522500D03*
%TO.P,SW2,1,1*%
%TO.N,GND*%
X62071250Y-113982500D03*
%TD*%
D12*
%TO.P,U1,1,GPIO26/ADC0/A0*%
%TO.N,unconnected-(U1-GPIO26{slash}ADC0{slash}A0-Pad1)*%
X107632500Y-79651250D03*
D13*
X107632500Y-80486250D03*
D12*
%TO.P,U1,2,GPIO27/ADC1/A1*%
%TO.N,unconnected-(U1-GPIO27{slash}ADC1{slash}A1-Pad2)*%
X105092500Y-79651250D03*
D13*
X105092500Y-80486250D03*
D12*
%TO.P,U1,3,GPIO28/ADC2/A2*%
%TO.N,unconnected-(U1-GPIO28{slash}ADC2{slash}A2-Pad3)*%
X102552500Y-79651250D03*
D13*
X102552500Y-80486250D03*
D12*
%TO.P,U1,4,GPIO29/ADC3/A3*%
%TO.N,unconnected-(U1-GPIO29{slash}ADC3{slash}A3-Pad4)*%
X100012500Y-79651250D03*
D13*
X100012500Y-80486250D03*
D12*
%TO.P,U1,5,GPIO6/SDA*%
%TO.N,Net-(D1-DIN)*%
X97472500Y-79651250D03*
D13*
X97472500Y-80486250D03*
D12*
%TO.P,U1,6,GPIO7/SCL*%
%TO.N,unconnected-(U1-GPIO7{slash}SCL-Pad6)*%
X94932500Y-79651250D03*
D13*
X94932500Y-80486250D03*
D12*
%TO.P,U1,7,GPIO0/TX*%
%TO.N,unconnected-(U1-GPIO0{slash}TX-Pad7)*%
X92392500Y-79651250D03*
D13*
X92392500Y-80486250D03*
%TO.P,U1,8,GPIO1/RX*%
%TO.N,Net-(U1-GPIO1{slash}RX)*%
X92392500Y-95726250D03*
D14*
X92392500Y-96561250D03*
D13*
%TO.P,U1,9,GPIO2/SCK*%
%TO.N,Net-(U1-GPIO2{slash}SCK)*%
X94932500Y-95726250D03*
D14*
X94932500Y-96561250D03*
D13*
%TO.P,U1,10,GPIO4/MISO*%
%TO.N,Net-(U1-GPIO4{slash}MISO)*%
X97472500Y-95726250D03*
D14*
X97472500Y-96561250D03*
D13*
%TO.P,U1,11,GPIO3/MOSI*%
%TO.N,Net-(U1-GPIO3{slash}MOSI)*%
X100012500Y-95726250D03*
D14*
X100012500Y-96561250D03*
D13*
%TO.P,U1,12,3V3*%
%TO.N,unconnected-(U1-3V3-Pad12)*%
X102552500Y-95726250D03*
D14*
X102552500Y-96561250D03*
D13*
%TO.P,U1,13,GND*%
%TO.N,GND*%
X105092500Y-95726250D03*
D14*
X105092500Y-96561250D03*
D13*
%TO.P,U1,14,VBUS*%
%TO.N,+5V*%
X107632500Y-95726250D03*
D14*
X107632500Y-96561250D03*
%TD*%
D15*
%TO.N,Net-(D1-DIN)*%
X97472500Y-80486250D02*
X97472500Y-68782926D01*
X97472500Y-68782926D02*
X84146588Y-55457014D01*
X84146588Y-55457014D02*
X81944588Y-55457014D01*
X81944588Y-55457014D02*
X81944588Y-56832014D01*
X81944588Y-56832014D02*
X83045588Y-57933014D01*
%TO.N,Net-(D1-DOUT)*%
X83343750Y-126206250D02*
X82617750Y-126932250D01*
X82617750Y-126932250D02*
X78742750Y-126932250D01*
X78444588Y-57284014D02*
X79545588Y-56183014D01*
X78742750Y-126932250D02*
X78444588Y-126634088D01*
X78444588Y-126634088D02*
X78444588Y-57284014D01*
%TO.N,GND*%
X79843750Y-126206250D02*
X80867750Y-125182250D01*
X80867750Y-125182250D02*
X84444750Y-125182250D01*
X84444750Y-125182250D02*
X108695500Y-100931500D01*
X108695500Y-100931500D02*
X108695500Y-95285940D01*
X106155500Y-94663250D02*
X105092500Y-95726250D01*
X108695500Y-95285940D02*
X108072810Y-94663250D01*
X108072810Y-94663250D02*
X106155500Y-94663250D01*
%TO.N,+5V*%
X83343750Y-124456250D02*
X84146588Y-123653412D01*
X84146588Y-123653412D02*
X84146588Y-57284014D01*
X84146588Y-57284014D02*
X83045588Y-56183014D01*
X83343750Y-124456250D02*
X107632500Y-100167500D01*
X107632500Y-100167500D02*
X107632500Y-95726250D01*
%TD*%
M02*
