%TF.GenerationSoftware,KiCad,Pcbnew,9.0.2-9.0.2-0~ubuntu25.04.1*%
%TF.CreationDate,2025-06-28T22:06:06-04:00*%
%TF.ProjectId,hackpad,6861636b-7061-4642-9e6b-696361645f70,rev?*%
%TF.SameCoordinates,Original*%
%TF.FileFunction,Legend,Top*%
%TF.FilePolarity,Positive*%
%FSLAX46Y46*%
G04 Gerber Fmt 4.6, Leading zero omitted, Abs format (unit mm)*
G04 Created by KiCad (PCBNEW 9.0.2-9.0.2-0~ubuntu25.04.1) date 2025-06-28 22:06:06*
%MOMM*%
%LPD*%
G01*
G04 APERTURE LIST*
%ADD10C,0.150000*%
%ADD11C,0.300000*%
%ADD12C,0.101600*%
%ADD13C,0.127000*%
%ADD14C,0.100000*%
%ADD15C,0.504000*%
%ADD16C,0.120000*%
G04 APERTURE END LIST*
D10*
X105814077Y-84568893D02*
X104814077Y-85235559D01*
X105814077Y-85235559D02*
X104814077Y-84568893D01*
X104814077Y-85616512D02*
X105814077Y-85616512D01*
X105099792Y-86045083D02*
X105099792Y-86521273D01*
X104814077Y-85949845D02*
X105814077Y-86283178D01*
X105814077Y-86283178D02*
X104814077Y-86616511D01*
X105814077Y-87140321D02*
X105814077Y-87330797D01*
X105814077Y-87330797D02*
X105766458Y-87426035D01*
X105766458Y-87426035D02*
X105671220Y-87521273D01*
X105671220Y-87521273D02*
X105480744Y-87568892D01*
X105480744Y-87568892D02*
X105147411Y-87568892D01*
X105147411Y-87568892D02*
X104956935Y-87521273D01*
X104956935Y-87521273D02*
X104861697Y-87426035D01*
X104861697Y-87426035D02*
X104814077Y-87330797D01*
X104814077Y-87330797D02*
X104814077Y-87140321D01*
X104814077Y-87140321D02*
X104861697Y-87045083D01*
X104861697Y-87045083D02*
X104956935Y-86949845D01*
X104956935Y-86949845D02*
X105147411Y-86902226D01*
X105147411Y-86902226D02*
X105480744Y-86902226D01*
X105480744Y-86902226D02*
X105671220Y-86949845D01*
X105671220Y-86949845D02*
X105766458Y-87045083D01*
X105766458Y-87045083D02*
X105814077Y-87140321D01*
X104814077Y-88759369D02*
X105814077Y-88759369D01*
X105337887Y-88759369D02*
X105337887Y-89330797D01*
X104814077Y-89330797D02*
X105814077Y-89330797D01*
X105337887Y-89806988D02*
X105337887Y-90140321D01*
X104814077Y-90283178D02*
X104814077Y-89806988D01*
X104814077Y-89806988D02*
X105814077Y-89806988D01*
X105814077Y-89806988D02*
X105814077Y-90283178D01*
X104814077Y-91283178D02*
X105290268Y-90949845D01*
X104814077Y-90711750D02*
X105814077Y-90711750D01*
X105814077Y-90711750D02*
X105814077Y-91092702D01*
X105814077Y-91092702D02*
X105766458Y-91187940D01*
X105766458Y-91187940D02*
X105718839Y-91235559D01*
X105718839Y-91235559D02*
X105623601Y-91283178D01*
X105623601Y-91283178D02*
X105480744Y-91283178D01*
X105480744Y-91283178D02*
X105385506Y-91235559D01*
X105385506Y-91235559D02*
X105337887Y-91187940D01*
X105337887Y-91187940D02*
X105290268Y-91092702D01*
X105290268Y-91092702D02*
X105290268Y-90711750D01*
X105337887Y-91711750D02*
X105337887Y-92045083D01*
X104814077Y-92187940D02*
X104814077Y-91711750D01*
X104814077Y-91711750D02*
X105814077Y-91711750D01*
X105814077Y-91711750D02*
X105814077Y-92187940D01*
D11*
X89303618Y-54569578D02*
X89303618Y-53783864D01*
X89303618Y-53783864D02*
X89232189Y-53641007D01*
X89232189Y-53641007D02*
X89089332Y-53569578D01*
X89089332Y-53569578D02*
X88803618Y-53569578D01*
X88803618Y-53569578D02*
X88660760Y-53641007D01*
X89303618Y-54498150D02*
X89160760Y-54569578D01*
X89160760Y-54569578D02*
X88803618Y-54569578D01*
X88803618Y-54569578D02*
X88660760Y-54498150D01*
X88660760Y-54498150D02*
X88589332Y-54355292D01*
X88589332Y-54355292D02*
X88589332Y-54212435D01*
X88589332Y-54212435D02*
X88660760Y-54069578D01*
X88660760Y-54069578D02*
X88803618Y-53998150D01*
X88803618Y-53998150D02*
X89160760Y-53998150D01*
X89160760Y-53998150D02*
X89303618Y-53926721D01*
X89875046Y-53569578D02*
X90232189Y-54569578D01*
X90232189Y-54569578D02*
X90589332Y-53569578D01*
X91375046Y-54569578D02*
X91232189Y-54498150D01*
X91232189Y-54498150D02*
X91160760Y-54426721D01*
X91160760Y-54426721D02*
X91089332Y-54283864D01*
X91089332Y-54283864D02*
X91089332Y-53855292D01*
X91089332Y-53855292D02*
X91160760Y-53712435D01*
X91160760Y-53712435D02*
X91232189Y-53641007D01*
X91232189Y-53641007D02*
X91375046Y-53569578D01*
X91375046Y-53569578D02*
X91589332Y-53569578D01*
X91589332Y-53569578D02*
X91732189Y-53641007D01*
X91732189Y-53641007D02*
X91803618Y-53712435D01*
X91803618Y-53712435D02*
X91875046Y-53855292D01*
X91875046Y-53855292D02*
X91875046Y-54283864D01*
X91875046Y-54283864D02*
X91803618Y-54426721D01*
X91803618Y-54426721D02*
X91732189Y-54498150D01*
X91732189Y-54498150D02*
X91589332Y-54569578D01*
X91589332Y-54569578D02*
X91375046Y-54569578D01*
X93160761Y-53569578D02*
X93160761Y-54783864D01*
X93160761Y-54783864D02*
X93089332Y-54926721D01*
X93089332Y-54926721D02*
X93017903Y-54998150D01*
X93017903Y-54998150D02*
X92875046Y-55069578D01*
X92875046Y-55069578D02*
X92660761Y-55069578D01*
X92660761Y-55069578D02*
X92517903Y-54998150D01*
X93160761Y-54498150D02*
X93017903Y-54569578D01*
X93017903Y-54569578D02*
X92732189Y-54569578D01*
X92732189Y-54569578D02*
X92589332Y-54498150D01*
X92589332Y-54498150D02*
X92517903Y-54426721D01*
X92517903Y-54426721D02*
X92446475Y-54283864D01*
X92446475Y-54283864D02*
X92446475Y-53855292D01*
X92446475Y-53855292D02*
X92517903Y-53712435D01*
X92517903Y-53712435D02*
X92589332Y-53641007D01*
X92589332Y-53641007D02*
X92732189Y-53569578D01*
X92732189Y-53569578D02*
X93017903Y-53569578D01*
X93017903Y-53569578D02*
X93160761Y-53641007D01*
X94517904Y-54569578D02*
X94517904Y-53783864D01*
X94517904Y-53783864D02*
X94446475Y-53641007D01*
X94446475Y-53641007D02*
X94303618Y-53569578D01*
X94303618Y-53569578D02*
X94017904Y-53569578D01*
X94017904Y-53569578D02*
X93875046Y-53641007D01*
X94517904Y-54498150D02*
X94375046Y-54569578D01*
X94375046Y-54569578D02*
X94017904Y-54569578D01*
X94017904Y-54569578D02*
X93875046Y-54498150D01*
X93875046Y-54498150D02*
X93803618Y-54355292D01*
X93803618Y-54355292D02*
X93803618Y-54212435D01*
X93803618Y-54212435D02*
X93875046Y-54069578D01*
X93875046Y-54069578D02*
X94017904Y-53998150D01*
X94017904Y-53998150D02*
X94375046Y-53998150D01*
X94375046Y-53998150D02*
X94517904Y-53926721D01*
X95017904Y-53569578D02*
X95589332Y-53569578D01*
X95232189Y-53069578D02*
X95232189Y-54355292D01*
X95232189Y-54355292D02*
X95303618Y-54498150D01*
X95303618Y-54498150D02*
X95446475Y-54569578D01*
X95446475Y-54569578D02*
X95589332Y-54569578D01*
X96303618Y-54569578D02*
X96160761Y-54498150D01*
X96160761Y-54498150D02*
X96089332Y-54426721D01*
X96089332Y-54426721D02*
X96017904Y-54283864D01*
X96017904Y-54283864D02*
X96017904Y-53855292D01*
X96017904Y-53855292D02*
X96089332Y-53712435D01*
X96089332Y-53712435D02*
X96160761Y-53641007D01*
X96160761Y-53641007D02*
X96303618Y-53569578D01*
X96303618Y-53569578D02*
X96517904Y-53569578D01*
X96517904Y-53569578D02*
X96660761Y-53641007D01*
X96660761Y-53641007D02*
X96732190Y-53712435D01*
X96732190Y-53712435D02*
X96803618Y-53855292D01*
X96803618Y-53855292D02*
X96803618Y-54283864D01*
X96803618Y-54283864D02*
X96732190Y-54426721D01*
X96732190Y-54426721D02*
X96660761Y-54498150D01*
X96660761Y-54498150D02*
X96517904Y-54569578D01*
X96517904Y-54569578D02*
X96303618Y-54569578D01*
X98589332Y-54569578D02*
X98589332Y-53069578D01*
X99232190Y-54569578D02*
X99232190Y-53783864D01*
X99232190Y-53783864D02*
X99160761Y-53641007D01*
X99160761Y-53641007D02*
X99017904Y-53569578D01*
X99017904Y-53569578D02*
X98803618Y-53569578D01*
X98803618Y-53569578D02*
X98660761Y-53641007D01*
X98660761Y-53641007D02*
X98589332Y-53712435D01*
X100589333Y-54569578D02*
X100589333Y-53783864D01*
X100589333Y-53783864D02*
X100517904Y-53641007D01*
X100517904Y-53641007D02*
X100375047Y-53569578D01*
X100375047Y-53569578D02*
X100089333Y-53569578D01*
X100089333Y-53569578D02*
X99946475Y-53641007D01*
X100589333Y-54498150D02*
X100446475Y-54569578D01*
X100446475Y-54569578D02*
X100089333Y-54569578D01*
X100089333Y-54569578D02*
X99946475Y-54498150D01*
X99946475Y-54498150D02*
X99875047Y-54355292D01*
X99875047Y-54355292D02*
X99875047Y-54212435D01*
X99875047Y-54212435D02*
X99946475Y-54069578D01*
X99946475Y-54069578D02*
X100089333Y-53998150D01*
X100089333Y-53998150D02*
X100446475Y-53998150D01*
X100446475Y-53998150D02*
X100589333Y-53926721D01*
X101946476Y-54498150D02*
X101803618Y-54569578D01*
X101803618Y-54569578D02*
X101517904Y-54569578D01*
X101517904Y-54569578D02*
X101375047Y-54498150D01*
X101375047Y-54498150D02*
X101303618Y-54426721D01*
X101303618Y-54426721D02*
X101232190Y-54283864D01*
X101232190Y-54283864D02*
X101232190Y-53855292D01*
X101232190Y-53855292D02*
X101303618Y-53712435D01*
X101303618Y-53712435D02*
X101375047Y-53641007D01*
X101375047Y-53641007D02*
X101517904Y-53569578D01*
X101517904Y-53569578D02*
X101803618Y-53569578D01*
X101803618Y-53569578D02*
X101946476Y-53641007D01*
X102589332Y-54569578D02*
X102589332Y-53069578D01*
X102732190Y-53998150D02*
X103160761Y-54569578D01*
X103160761Y-53569578D02*
X102589332Y-54141007D01*
X103803618Y-53569578D02*
X103803618Y-55069578D01*
X103803618Y-53641007D02*
X103946476Y-53569578D01*
X103946476Y-53569578D02*
X104232190Y-53569578D01*
X104232190Y-53569578D02*
X104375047Y-53641007D01*
X104375047Y-53641007D02*
X104446476Y-53712435D01*
X104446476Y-53712435D02*
X104517904Y-53855292D01*
X104517904Y-53855292D02*
X104517904Y-54283864D01*
X104517904Y-54283864D02*
X104446476Y-54426721D01*
X104446476Y-54426721D02*
X104375047Y-54498150D01*
X104375047Y-54498150D02*
X104232190Y-54569578D01*
X104232190Y-54569578D02*
X103946476Y-54569578D01*
X103946476Y-54569578D02*
X103803618Y-54498150D01*
X105803619Y-54569578D02*
X105803619Y-53783864D01*
X105803619Y-53783864D02*
X105732190Y-53641007D01*
X105732190Y-53641007D02*
X105589333Y-53569578D01*
X105589333Y-53569578D02*
X105303619Y-53569578D01*
X105303619Y-53569578D02*
X105160761Y-53641007D01*
X105803619Y-54498150D02*
X105660761Y-54569578D01*
X105660761Y-54569578D02*
X105303619Y-54569578D01*
X105303619Y-54569578D02*
X105160761Y-54498150D01*
X105160761Y-54498150D02*
X105089333Y-54355292D01*
X105089333Y-54355292D02*
X105089333Y-54212435D01*
X105089333Y-54212435D02*
X105160761Y-54069578D01*
X105160761Y-54069578D02*
X105303619Y-53998150D01*
X105303619Y-53998150D02*
X105660761Y-53998150D01*
X105660761Y-53998150D02*
X105803619Y-53926721D01*
X107160762Y-54569578D02*
X107160762Y-53069578D01*
X107160762Y-54498150D02*
X107017904Y-54569578D01*
X107017904Y-54569578D02*
X106732190Y-54569578D01*
X106732190Y-54569578D02*
X106589333Y-54498150D01*
X106589333Y-54498150D02*
X106517904Y-54426721D01*
X106517904Y-54426721D02*
X106446476Y-54283864D01*
X106446476Y-54283864D02*
X106446476Y-53855292D01*
X106446476Y-53855292D02*
X106517904Y-53712435D01*
X106517904Y-53712435D02*
X106589333Y-53641007D01*
X106589333Y-53641007D02*
X106732190Y-53569578D01*
X106732190Y-53569578D02*
X107017904Y-53569578D01*
X107017904Y-53569578D02*
X107160762Y-53641007D01*
D12*
X107502770Y-99528690D02*
X106988723Y-99528690D01*
X106988723Y-99528690D02*
X106928247Y-99558928D01*
X106928247Y-99558928D02*
X106898009Y-99589166D01*
X106898009Y-99589166D02*
X106867770Y-99649642D01*
X106867770Y-99649642D02*
X106867770Y-99770595D01*
X106867770Y-99770595D02*
X106898009Y-99831071D01*
X106898009Y-99831071D02*
X106928247Y-99861309D01*
X106928247Y-99861309D02*
X106988723Y-99891547D01*
X106988723Y-99891547D02*
X107502770Y-99891547D01*
X106867770Y-100526547D02*
X106867770Y-100163690D01*
X106867770Y-100345118D02*
X107502770Y-100345118D01*
X107502770Y-100345118D02*
X107412056Y-100284642D01*
X107412056Y-100284642D02*
X107351580Y-100224166D01*
X107351580Y-100224166D02*
X107321342Y-100163690D01*
D10*
X58197917Y-111595700D02*
X58340774Y-111643319D01*
X58340774Y-111643319D02*
X58578869Y-111643319D01*
X58578869Y-111643319D02*
X58674107Y-111595700D01*
X58674107Y-111595700D02*
X58721726Y-111548080D01*
X58721726Y-111548080D02*
X58769345Y-111452842D01*
X58769345Y-111452842D02*
X58769345Y-111357604D01*
X58769345Y-111357604D02*
X58721726Y-111262366D01*
X58721726Y-111262366D02*
X58674107Y-111214747D01*
X58674107Y-111214747D02*
X58578869Y-111167128D01*
X58578869Y-111167128D02*
X58388393Y-111119509D01*
X58388393Y-111119509D02*
X58293155Y-111071890D01*
X58293155Y-111071890D02*
X58245536Y-111024271D01*
X58245536Y-111024271D02*
X58197917Y-110929033D01*
X58197917Y-110929033D02*
X58197917Y-110833795D01*
X58197917Y-110833795D02*
X58245536Y-110738557D01*
X58245536Y-110738557D02*
X58293155Y-110690938D01*
X58293155Y-110690938D02*
X58388393Y-110643319D01*
X58388393Y-110643319D02*
X58626488Y-110643319D01*
X58626488Y-110643319D02*
X58769345Y-110690938D01*
X59102679Y-110643319D02*
X59340774Y-111643319D01*
X59340774Y-111643319D02*
X59531250Y-110929033D01*
X59531250Y-110929033D02*
X59721726Y-111643319D01*
X59721726Y-111643319D02*
X59959822Y-110643319D01*
X60293155Y-110738557D02*
X60340774Y-110690938D01*
X60340774Y-110690938D02*
X60436012Y-110643319D01*
X60436012Y-110643319D02*
X60674107Y-110643319D01*
X60674107Y-110643319D02*
X60769345Y-110690938D01*
X60769345Y-110690938D02*
X60816964Y-110738557D01*
X60816964Y-110738557D02*
X60864583Y-110833795D01*
X60864583Y-110833795D02*
X60864583Y-110929033D01*
X60864583Y-110929033D02*
X60816964Y-111071890D01*
X60816964Y-111071890D02*
X60245536Y-111643319D01*
X60245536Y-111643319D02*
X60864583Y-111643319D01*
X58197917Y-92545700D02*
X58340774Y-92593319D01*
X58340774Y-92593319D02*
X58578869Y-92593319D01*
X58578869Y-92593319D02*
X58674107Y-92545700D01*
X58674107Y-92545700D02*
X58721726Y-92498080D01*
X58721726Y-92498080D02*
X58769345Y-92402842D01*
X58769345Y-92402842D02*
X58769345Y-92307604D01*
X58769345Y-92307604D02*
X58721726Y-92212366D01*
X58721726Y-92212366D02*
X58674107Y-92164747D01*
X58674107Y-92164747D02*
X58578869Y-92117128D01*
X58578869Y-92117128D02*
X58388393Y-92069509D01*
X58388393Y-92069509D02*
X58293155Y-92021890D01*
X58293155Y-92021890D02*
X58245536Y-91974271D01*
X58245536Y-91974271D02*
X58197917Y-91879033D01*
X58197917Y-91879033D02*
X58197917Y-91783795D01*
X58197917Y-91783795D02*
X58245536Y-91688557D01*
X58245536Y-91688557D02*
X58293155Y-91640938D01*
X58293155Y-91640938D02*
X58388393Y-91593319D01*
X58388393Y-91593319D02*
X58626488Y-91593319D01*
X58626488Y-91593319D02*
X58769345Y-91640938D01*
X59102679Y-91593319D02*
X59340774Y-92593319D01*
X59340774Y-92593319D02*
X59531250Y-91879033D01*
X59531250Y-91879033D02*
X59721726Y-92593319D01*
X59721726Y-92593319D02*
X59959822Y-91593319D01*
X60864583Y-92593319D02*
X60293155Y-92593319D01*
X60578869Y-92593319D02*
X60578869Y-91593319D01*
X60578869Y-91593319D02*
X60483631Y-91736176D01*
X60483631Y-91736176D02*
X60388393Y-91831414D01*
X60388393Y-91831414D02*
X60293155Y-91879033D01*
X75450875Y-124979083D02*
X75450875Y-123979083D01*
X75450875Y-123979083D02*
X75688970Y-123979083D01*
X75688970Y-123979083D02*
X75831827Y-124026702D01*
X75831827Y-124026702D02*
X75927065Y-124121940D01*
X75927065Y-124121940D02*
X75974684Y-124217178D01*
X75974684Y-124217178D02*
X76022303Y-124407654D01*
X76022303Y-124407654D02*
X76022303Y-124550511D01*
X76022303Y-124550511D02*
X75974684Y-124740987D01*
X75974684Y-124740987D02*
X75927065Y-124836225D01*
X75927065Y-124836225D02*
X75831827Y-124931464D01*
X75831827Y-124931464D02*
X75688970Y-124979083D01*
X75688970Y-124979083D02*
X75450875Y-124979083D01*
X76403256Y-124074321D02*
X76450875Y-124026702D01*
X76450875Y-124026702D02*
X76546113Y-123979083D01*
X76546113Y-123979083D02*
X76784208Y-123979083D01*
X76784208Y-123979083D02*
X76879446Y-124026702D01*
X76879446Y-124026702D02*
X76927065Y-124074321D01*
X76927065Y-124074321D02*
X76974684Y-124169559D01*
X76974684Y-124169559D02*
X76974684Y-124264797D01*
X76974684Y-124264797D02*
X76927065Y-124407654D01*
X76927065Y-124407654D02*
X76355637Y-124979083D01*
X76355637Y-124979083D02*
X76974684Y-124979083D01*
X78622321Y-124818545D02*
X78165178Y-124818545D01*
X78393750Y-124818545D02*
X78393750Y-124018545D01*
X78393750Y-124018545D02*
X78317559Y-124132830D01*
X78317559Y-124132830D02*
X78241369Y-124209021D01*
X78241369Y-124209021D02*
X78165178Y-124247116D01*
X76000691Y-56876068D02*
X76000691Y-55876068D01*
X76000691Y-55876068D02*
X76238786Y-55876068D01*
X76238786Y-55876068D02*
X76381643Y-55923687D01*
X76381643Y-55923687D02*
X76476881Y-56018925D01*
X76476881Y-56018925D02*
X76524500Y-56114163D01*
X76524500Y-56114163D02*
X76572119Y-56304639D01*
X76572119Y-56304639D02*
X76572119Y-56447496D01*
X76572119Y-56447496D02*
X76524500Y-56637972D01*
X76524500Y-56637972D02*
X76476881Y-56733210D01*
X76476881Y-56733210D02*
X76381643Y-56828449D01*
X76381643Y-56828449D02*
X76238786Y-56876068D01*
X76238786Y-56876068D02*
X76000691Y-56876068D01*
X77524500Y-56876068D02*
X76953072Y-56876068D01*
X77238786Y-56876068D02*
X77238786Y-55876068D01*
X77238786Y-55876068D02*
X77143548Y-56018925D01*
X77143548Y-56018925D02*
X77048310Y-56114163D01*
X77048310Y-56114163D02*
X76953072Y-56161782D01*
X78324159Y-56545309D02*
X77867016Y-56545309D01*
X78095588Y-56545309D02*
X78095588Y-55745309D01*
X78095588Y-55745309D02*
X78019397Y-55859594D01*
X78019397Y-55859594D02*
X77943207Y-55935785D01*
X77943207Y-55935785D02*
X77867016Y-55973880D01*
X58197917Y-54445700D02*
X58340774Y-54493319D01*
X58340774Y-54493319D02*
X58578869Y-54493319D01*
X58578869Y-54493319D02*
X58674107Y-54445700D01*
X58674107Y-54445700D02*
X58721726Y-54398080D01*
X58721726Y-54398080D02*
X58769345Y-54302842D01*
X58769345Y-54302842D02*
X58769345Y-54207604D01*
X58769345Y-54207604D02*
X58721726Y-54112366D01*
X58721726Y-54112366D02*
X58674107Y-54064747D01*
X58674107Y-54064747D02*
X58578869Y-54017128D01*
X58578869Y-54017128D02*
X58388393Y-53969509D01*
X58388393Y-53969509D02*
X58293155Y-53921890D01*
X58293155Y-53921890D02*
X58245536Y-53874271D01*
X58245536Y-53874271D02*
X58197917Y-53779033D01*
X58197917Y-53779033D02*
X58197917Y-53683795D01*
X58197917Y-53683795D02*
X58245536Y-53588557D01*
X58245536Y-53588557D02*
X58293155Y-53540938D01*
X58293155Y-53540938D02*
X58388393Y-53493319D01*
X58388393Y-53493319D02*
X58626488Y-53493319D01*
X58626488Y-53493319D02*
X58769345Y-53540938D01*
X59102679Y-53493319D02*
X59340774Y-54493319D01*
X59340774Y-54493319D02*
X59531250Y-53779033D01*
X59531250Y-53779033D02*
X59721726Y-54493319D01*
X59721726Y-54493319D02*
X59959822Y-53493319D01*
X60245536Y-53493319D02*
X60864583Y-53493319D01*
X60864583Y-53493319D02*
X60531250Y-53874271D01*
X60531250Y-53874271D02*
X60674107Y-53874271D01*
X60674107Y-53874271D02*
X60769345Y-53921890D01*
X60769345Y-53921890D02*
X60816964Y-53969509D01*
X60816964Y-53969509D02*
X60864583Y-54064747D01*
X60864583Y-54064747D02*
X60864583Y-54302842D01*
X60864583Y-54302842D02*
X60816964Y-54398080D01*
X60816964Y-54398080D02*
X60769345Y-54445700D01*
X60769345Y-54445700D02*
X60674107Y-54493319D01*
X60674107Y-54493319D02*
X60388393Y-54493319D01*
X60388393Y-54493319D02*
X60293155Y-54445700D01*
X60293155Y-54445700D02*
X60245536Y-54398080D01*
X58197917Y-73495700D02*
X58340774Y-73543319D01*
X58340774Y-73543319D02*
X58578869Y-73543319D01*
X58578869Y-73543319D02*
X58674107Y-73495700D01*
X58674107Y-73495700D02*
X58721726Y-73448080D01*
X58721726Y-73448080D02*
X58769345Y-73352842D01*
X58769345Y-73352842D02*
X58769345Y-73257604D01*
X58769345Y-73257604D02*
X58721726Y-73162366D01*
X58721726Y-73162366D02*
X58674107Y-73114747D01*
X58674107Y-73114747D02*
X58578869Y-73067128D01*
X58578869Y-73067128D02*
X58388393Y-73019509D01*
X58388393Y-73019509D02*
X58293155Y-72971890D01*
X58293155Y-72971890D02*
X58245536Y-72924271D01*
X58245536Y-72924271D02*
X58197917Y-72829033D01*
X58197917Y-72829033D02*
X58197917Y-72733795D01*
X58197917Y-72733795D02*
X58245536Y-72638557D01*
X58245536Y-72638557D02*
X58293155Y-72590938D01*
X58293155Y-72590938D02*
X58388393Y-72543319D01*
X58388393Y-72543319D02*
X58626488Y-72543319D01*
X58626488Y-72543319D02*
X58769345Y-72590938D01*
X59102679Y-72543319D02*
X59340774Y-73543319D01*
X59340774Y-73543319D02*
X59531250Y-72829033D01*
X59531250Y-72829033D02*
X59721726Y-73543319D01*
X59721726Y-73543319D02*
X59959822Y-72543319D01*
X60769345Y-72876652D02*
X60769345Y-73543319D01*
X60531250Y-72495700D02*
X60293155Y-73209985D01*
X60293155Y-73209985D02*
X60912202Y-73209985D01*
D13*
%TO.C,U1*%
X89598500Y-81121250D02*
X89598500Y-95091250D01*
X91503500Y-79216250D02*
X108648500Y-79216250D01*
X91503500Y-96996250D02*
X108648500Y-96996250D01*
X110553500Y-83611250D02*
X111463772Y-83614978D01*
D14*
X110553500Y-95091250D02*
X110553500Y-81121250D01*
D13*
X110553500Y-95091250D02*
X110553500Y-81121250D01*
X111463500Y-92610250D02*
X110553500Y-92610250D01*
X111963500Y-84114978D02*
X111963500Y-92110250D01*
X89598500Y-81121250D02*
G75*
G02*
X91503500Y-79216250I1905001J-1D01*
G01*
X91503500Y-96996250D02*
G75*
G02*
X89598500Y-95091250I0J1905000D01*
G01*
X108648500Y-79216250D02*
G75*
G02*
X110553500Y-81121250I-1J-1905001D01*
G01*
X110553500Y-95091250D02*
G75*
G02*
X108648500Y-96996250I-1905000J0D01*
G01*
X111463772Y-83614978D02*
G75*
G02*
X111963499Y-84114978I-291J-500018D01*
G01*
X111963500Y-92110250D02*
G75*
G02*
X111463500Y-92610250I-500000J0D01*
G01*
D15*
X109684500Y-80299250D02*
G75*
G02*
X109180500Y-80299250I-252000J0D01*
G01*
X109180500Y-80299250D02*
G75*
G02*
X109684500Y-80299250I252000J0D01*
G01*
X110564500Y-79156250D02*
G75*
G02*
X110060500Y-79156250I-252000J0D01*
G01*
X110060500Y-79156250D02*
G75*
G02*
X110564500Y-79156250I252000J0D01*
G01*
D16*
%TO.C,SW2*%
X52546250Y-112077500D02*
X66516250Y-112077500D01*
X52546250Y-126047500D02*
X52546250Y-112077500D01*
X66516250Y-112077500D02*
X66516250Y-126047500D01*
X66516250Y-126047500D02*
X52546250Y-126047500D01*
%TO.C,SW1*%
X52546250Y-93027500D02*
X66516250Y-93027500D01*
X52546250Y-106997500D02*
X52546250Y-93027500D01*
X66516250Y-93027500D02*
X66516250Y-106997500D01*
X66516250Y-106997500D02*
X52546250Y-106997500D01*
%TO.C,D2*%
X78793750Y-123331250D02*
X78793750Y-127331250D01*
X78793750Y-123331250D02*
X84393750Y-123331250D01*
X78793750Y-127331250D02*
X83793750Y-127331250D01*
X84393750Y-126731250D02*
X83793750Y-127331250D01*
X84393750Y-126731250D02*
X84393750Y-123331250D01*
%TO.C,D1*%
X78495588Y-55058014D02*
X78495588Y-59058014D01*
X78495588Y-55058014D02*
X84095588Y-55058014D01*
X78495588Y-59058014D02*
X83495588Y-59058014D01*
X84095588Y-58458014D02*
X83495588Y-59058014D01*
X84095588Y-58458014D02*
X84095588Y-55058014D01*
%TO.C,SW3*%
X52546250Y-54927500D02*
X66516250Y-54927500D01*
X52546250Y-68897500D02*
X52546250Y-54927500D01*
X66516250Y-54927500D02*
X66516250Y-68897500D01*
X66516250Y-68897500D02*
X52546250Y-68897500D01*
%TO.C,SW4*%
X52546250Y-73977500D02*
X66516250Y-73977500D01*
X52546250Y-87947500D02*
X52546250Y-73977500D01*
X66516250Y-73977500D02*
X66516250Y-87947500D01*
X66516250Y-87947500D02*
X52546250Y-87947500D01*
%TD*%
M02*
